<svg version="1.2" xmlns="http://www.w3.org/2000/svg" viewBox="0 0 2763 3197" width="500" height="579">
	<title>apple-logo-2</title>
	<style>
		.s0 { fill: #000000 } 
	</style>
	<path class="s0" d="m1366.7 953.5q207.2 0 363.4-161.7 156.3-161.8 156.3-376.2 0-23.6-3.7-67-27.3 3.8-40.9 6.2-191 27.3-336.1 187.2-145.2 159.9-145.2 342.1 0 21.1 6.2 69.4zm494.9 1895.3q147.6 0 326.2-202.1 178.6-202 272.8-474.7-351-181-351-519.4 0-282.6 284.1-483.4-197.2-246.7-520.9-246.7-136.5 0-249.3 40.9l-47.2 17.4-63.2 24.8q-62 23.5-112.9 23.5-39.7 0-104.1-27.2l-48.4-19.9-45.9-18.6q-100.5-42.1-215.8-42.1-308.8 0-496.1 208.2-187.3 208.3-187.3 549.1 0 479.7 300.2 886.3 208.3 283.9 380.7 283.9 73.2 0 145.1-28.6l60.8-24.7 48.4-17.4q101.7-35.9 187.2-35.9 90.6 0 208.4 45.8l38.4 14.9q120.3 45.9 189.8 45.9z"/>
</svg>