<svg version="1.2" xmlns="http://www.w3.org/2000/svg" viewBox="0 0 345 100" width="345" height="100">
	<title>photon-logo</title>
	<defs>
		<linearGradient id="g1" x2="1" gradientUnits="userSpaceOnUse" gradientTransform="matrix(62.49,43.76,-43.78,62.518,38.89,27.25)">
			<stop offset=".19" stop-color="#71d7fc"/>
			<stop offset=".29" stop-color="#67caf1"/>
			<stop offset=".47" stop-color="#4ea9d5"/>
			<stop offset=".7" stop-color="#2574a9"/>
			<stop offset=".89" stop-color="#004480"/>
		</linearGradient>
	</defs>
	<style>
		.s0 { fill: #004480 } 
		.s1 { fill: url(#g1) } 
	</style>
	<g id="Photon_ALL_color">
		<g id="Photon_ALL_color-2">
			<g id="PHOTON">
				<path class="s0" d="m284.1 65.3h7.3v-25.4q0.8-0.2 1.7-0.4 0.9-0.1 1.8-0.2 0.9-0.1 1.8-0.2 0.9 0 1.7 0c4 0 6.7 1.3 6.7 6.2v20h7.2v-20.2c0-9.2-5.1-12.8-13.7-12.8-4.9 0-10.9 0.7-14.5 2.1z"/>
				<path class="s0" d="m263.5 66.1c10.1 0 15-6.7 15-17 0-10.6-4.5-16.8-15-16.8-10.1 0-15.1 6.6-15.1 16.8 0 10.7 4.5 17 15.1 17zm7.8-17c0 6.2-1.4 10.1-7.8 10.1-6.5 0-7.8-3.9-7.8-10.1 0-6.1 1.4-10 7.8-10 6.3 0 7.8 3.9 7.8 10z"/>
				<path class="s0" d="m225.2 53.8c0 9.2 5.1 12.2 12.1 12.2q1 0 2-0.1 1.1-0.1 2.1-0.2 1-0.2 2-0.5 1-0.3 2-0.6l-1.2-6.9q-0.8 0.4-1.6 0.7-0.9 0.2-1.8 0.4-0.9 0.2-1.8 0.3-0.9 0.1-1.8 0.1c-2.8 0-4.7-1.3-4.7-5.3v-14.1h11.6v-6.9h-11.7v-8.5h-7.2z"/>
				<path class="s0" d="m204.6 66.1c10.2 0 15-6.7 15-17 0-10.6-4.5-16.8-15-16.8-10.1 0-15.1 6.6-15.1 16.8 0 10.7 4.5 17 15.1 17zm7.7-17c0 6.2-1.3 10.1-7.8 10.1-6.4 0-7.8-3.9-7.8-10.1 0-6.1 1.5-10 7.8-10 6.4 0 7.8 3.9 7.8 10z"/>
				<path class="s0" d="m155.6 65.3h7.3v-25.4q0.8-0.2 1.7-0.4 0.9-0.1 1.8-0.2 0.9-0.1 1.8-0.2 0.9 0 1.7 0c4.1 0 6.7 1.3 6.7 6.2v20h7.2v-20c0-9.7-5.4-13-13.5-13q-1-0.1-1.9 0-0.9 0-1.9 0.2-0.9 0.1-1.8 0.3-0.9 0.1-1.8 0.4v-13.8h-7.3z"/>
				<path class="s0" d="m121.8 79.3h7.2v-14.2q0.6 0.3 1.3 0.5 0.7 0.1 1.4 0.3 0.7 0.1 1.4 0.1 0.6 0.1 1.3 0.1c9.9 0 15.6-6.4 15.6-17.4 0-10.7-5-16.4-16.3-16.4q-1.5 0-3 0.1-1.6 0.1-3.1 0.4-1.5 0.2-3 0.6-1.4 0.4-2.9 0.9v45zm21-30.2c0 6.7-1.8 10.1-8.6 10.1q-0.7 0.1-1.4 0-0.6 0-1.3-0.1-0.6-0.2-1.2-0.4-0.7-0.2-1.3-0.5v-18.4q0.7-0.2 1.3-0.3 0.6-0.2 1.2-0.3 0.7-0.1 1.3-0.1 0.7 0 1.3 0c6.5 0 8.7 2.6 8.7 10z"/>
			</g>
			<path id="Corona" fill-rule="evenodd" class="s1" d="m54.5 63.6q0.3 0.3 0.6 0.6l0.6 0.5-10.8 13q-0.9-0.8-1.7-1.6c-0.6-0.6-1.2-1.2-1.7-1.8l13-10.7zm4.5 3.7l-8 14.9q-0.6-0.3-1.1-0.6-0.5-0.4-1-0.7-0.5-0.3-1-0.7-0.5-0.4-1-0.7l10.7-13.2q0.7 0.5 1.4 0.9zm-7-7q0.4 0.7 0.9 1.4l-13.1 10.6q-0.4-0.4-0.7-0.9-0.4-0.5-0.7-1-0.4-0.6-0.7-1.1-0.3-0.5-0.6-1l14.9-8zm10.7 8.8l-4.9 16.1q-0.6-0.2-1.2-0.4-0.5-0.2-1.1-0.5-0.6-0.2-1.1-0.4-0.6-0.3-1.1-0.6l7.9-14.9q0.8 0.4 1.5 0.7zm-12.6-12.7q0.3 0.8 0.7 1.5l-14.9 8q-0.3-0.6-0.6-1.1-0.2-0.6-0.5-1.2-0.2-0.5-0.4-1.1-0.2-0.6-0.4-1.2zm16.6 13.7l-1.7 16.8q-0.6-0.1-1.2-0.2-0.6-0.1-1.2-0.2-0.6-0.2-1.2-0.3-0.6-0.2-1.2-0.3l4.9-16.1q0.8 0.2 1.6 0.3zm-17.7-17.7q0.2 0.8 0.4 1.6l-16.2 4.9q-0.2-0.6-0.3-1.2-0.2-0.6-0.3-1.2-0.1-0.6-0.2-1.2-0.1-0.6-0.2-1.2zm-0.2-4.1q0 0.8 0 1.6l-16.8 1.6q-0.1-0.6-0.1-1.2 0-0.6 0-1.2 0-0.6 0-1.2 0-0.6 0.1-1.2zm22.1 22l1.6 16.8q-0.6 0.1-1.2 0.1-0.7 0-1.3 0-0.6 0-1.2 0-0.6 0-1.2-0.1l1.6-16.8q0.2 0 0.4 0 0.2 0 0.4 0 0.2 0 0.4 0 0.3 0 0.5 0zm4.1-0.5l4.9 16.1q-0.6 0.2-1.2 0.3-0.6 0.2-1.2 0.3-0.6 0.1-1.2 0.2-0.6 0.1-1.2 0.2l-1.7-16.8q0.8-0.1 1.6-0.3zm-25.7-25.6q-0.1 0.8-0.3 1.6l-16.8-1.7q0.1-0.6 0.2-1.2 0.1-0.6 0.2-1.2 0.1-0.6 0.3-1.2 0.1-0.6 0.3-1.2c0 0 16.1 4.9 16.1 4.9zm29.6 24.2l8 15q-0.6 0.2-1.1 0.5-0.6 0.2-1.2 0.5-0.5 0.2-1.1 0.4-0.6 0.2-1.2 0.4l-4.9-16.1q0.8-0.3 1.5-0.7zm-28.2-28.3q-0.3 0.8-0.6 1.6l-16.1-5q0.2-0.6 0.4-1.2 0.2-0.6 0.4-1.1 0.3-0.6 0.5-1.1 0.3-0.6 0.6-1.1l14.8 8zm31.8 26.1l10.7 13.1q-0.5 0.4-1 0.7-0.5 0.4-1 0.7-0.5 0.4-1 0.7-0.5 0.3-1 0.6l-8-14.8q0.7-0.4 1.3-0.9zm-29.7-29.7q-0.5 0.7-0.9 1.4l-14.9-8q0.3-0.6 0.7-1.1 0.3-0.5 0.6-1 0.4-0.5 0.7-1 0.4-0.5 0.8-1zm45.8 37.7q-0.8 0.9-1.7 1.8-0.8 0.9-1.8 1.7l-10.7-13.1 0.6-0.5 0.6-0.6zm-53.9-53.9l10.8 13-0.6 0.6q-0.3 0.3-0.6 0.6l-13-10.7q0.8-0.9 1.7-1.8 0.9-0.9 1.8-1.7zm58.2 47.8q-0.3 0.5-0.6 1-0.4 0.5-0.7 1-0.4 0.6-0.7 1.1-0.4 0.5-0.7 0.9l-13.1-10.6q0.5-0.7 0.9-1.4l14.9 8zm-52.2-52.1l8 14.8q-0.7 0.5-1.3 0.9l-10.7-13q0.5-0.4 1-0.8 0.5-0.3 1-0.7 0.5-0.3 1-0.6 0.5-0.3 1-0.6zm55.3 45.3q-0.2 0.6-0.4 1.1-0.3 0.6-0.5 1.2-0.2 0.5-0.5 1.1-0.2 0.5-0.5 1.1l-14.9-7.9q0.3-0.8 0.6-1.6zm-48.4-48.4l5 16.2q-0.8 0.2-1.6 0.6l-7.9-14.9q0.6-0.3 1.1-0.5 0.6-0.3 1.2-0.5 0.5-0.3 1.1-0.5 0.6-0.2 1.1-0.4zm50.1 41.2q-0.1 0.6-0.2 1.2-0.1 0.6-0.2 1.2-0.1 0.6-0.3 1.2-0.1 0.6-0.3 1.1l-16.1-4.8q0.2-0.8 0.3-1.6zm-42.8-42.9l1.7 16.8q-0.8 0.2-1.6 0.3l-4.9-16.1q0.6-0.1 1.2-0.3 0.6-0.1 1.2-0.3 0.6-0.1 1.2-0.2 0.6-0.1 1.2-0.2zm43.1 35.4q0 0.6 0 1.2 0.1 0.6 0.1 1.2 0 0.6-0.1 1.3 0 0.6 0 1.2l-16.8-1.6q0-0.9 0-1.7zm-35.6-35.6l-1.7 16.8q-0.8 0-1.6 0l-1.6-16.8q0.6-0.1 1.2-0.1 0.6 0 1.2 0 0.6 0 1.2 0 0.6 0 1.3 0.1zm34.4 28.2q0.1 0.6 0.3 1.2 0.1 0.6 0.2 1.2 0.2 0.6 0.3 1.2 0.1 0.6 0.2 1.2l-16.8 1.7q-0.2-0.8-0.4-1.6zm-27-27l-4.9 16.1q-0.8-0.2-1.6-0.3l1.7-16.8q0.6 0.1 1.2 0.2 0.6 0.1 1.2 0.2 0.6 0.1 1.2 0.2 0.6 0.2 1.2 0.3zm7 2.7l-7.9 14.8q-0.8-0.3-1.6-0.6l5-16.2q0.5 0.2 1.1 0.4 0.6 0.3 1.2 0.5 0.5 0.2 1.1 0.5 0.5 0.2 1.1 0.5zm17.4 17.4q0.2 0.5 0.5 1.1 0.2 0.5 0.5 1.1 0.2 0.6 0.4 1.1 0.2 0.6 0.4 1.2l-16.1 5q-0.3-0.7-0.7-1.5zm-11-13.5l-10.7 13.1q-0.7-0.5-1.4-1l8-14.8q0.5 0.3 1 0.6 0.6 0.3 1.1 0.6 0.5 0.4 1 0.7 0.5 0.4 1 0.8zm7.1 7.1q0.3 0.4 0.7 0.9 0.3 0.5 0.7 1 0.3 0.5 0.6 1.1 0.4 0.5 0.7 1l-14.9 8q-0.4-0.7-0.9-1.4l13.1-10.7zm-5.1-5.4q0.9 0.8 1.8 1.7c0.6 0.6 1.1 1.1 1.6 1.8l-13 10.7q-0.2-0.3-0.5-0.6l-0.6-0.6 10.7-13z"/>
		</g>
	</g>
</svg>